<svg width="56" height="31" viewBox="0 0 56 31" fill="none" xmlns="http://www.w3.org/2000/svg">
<path d="M28.7927 0.643043L54.393 26.2693C54.8179 26.7655 55.04 27.4037 55.0147 28.0565C54.9895 28.7093 54.7189 29.3285 54.257 29.7905C53.7951 30.2524 53.1758 30.523 52.523 30.5482C51.8703 30.5734 51.232 30.3514 50.7358 29.9265L27.2364 6.4271L4.41143 29.2521C3.92546 29.7352 3.26807 30.0063 2.58284 30.0063C1.8976 30.0063 1.24021 29.7352 0.754243 29.2521C0.271155 28.7661 0 28.1087 0 27.4235C0 26.7383 0.271155 26.0809 0.754243 25.5949L25.6802 0.643043C26.0934 0.231232 26.653 0 27.2364 0C27.8198 0 28.3794 0.231232 28.7927 0.643043Z" fill="url(#paint0_linear_55_11)"/>
<defs>
<linearGradient id="paint0_linear_55_11" x1="0" y1="15" x2="55" y2="15" gradientUnits="userSpaceOnUse">
<stop stop-color="#0C3FE9"/>
<stop offset="1" stop-color="#7901A4"/>
</linearGradient>
</defs>
</svg>
