<svg width="105" height="104" viewBox="0 0 105 104" fill="none" xmlns="http://www.w3.org/2000/svg">
<path d="M52.4615 103.846C81.1378 103.846 104.385 80.5994 104.385 51.9231C104.385 23.2467 81.1378 0 52.4615 0C23.7852 0 0.538456 23.2467 0.538456 51.9231C0.538456 80.5994 23.7852 103.846 52.4615 103.846Z" fill="#525967"/>
<path d="M52.4615 3.96864C61.946 3.96864 71.2175 6.78112 79.1036 12.0504C86.9896 17.3197 93.1361 24.8092 96.7656 33.5717C100.395 42.3342 101.345 51.9763 99.4945 61.2785C97.6442 70.5807 93.077 79.1254 86.3704 85.832C79.6639 92.5385 71.1192 97.1057 61.817 98.9561C52.5147 100.806 42.8727 99.8567 34.1102 96.2272C25.3476 92.5976 17.8582 86.4512 12.5889 78.5651C7.31959 70.679 4.50712 61.4076 4.50712 51.9231C4.52462 39.2101 9.58256 27.0229 18.572 18.0335C27.5614 9.04409 39.7486 3.98614 52.4615 3.96864ZM52.4615 0C42.1921 0 32.1533 3.04523 23.6146 8.75061C15.0759 14.456 8.42082 22.5653 4.49088 32.053C0.56095 41.5407 -0.4673 51.9807 1.53616 62.0527C3.53963 72.1248 8.48482 81.3766 15.7464 88.6382C23.008 95.8998 32.2598 100.845 42.3318 102.848C52.4039 104.852 62.8439 103.824 72.3316 99.8937C81.8193 95.9638 89.9286 89.3087 95.634 80.77C101.339 72.2313 104.385 62.1925 104.385 51.9231C104.385 38.1522 98.9142 24.9454 89.1767 15.2079C79.4392 5.47045 66.2324 0 52.4615 0Z" fill="#454B57"/>
<path d="M42.5399 82.4155C45.2414 82.4155 47.8323 81.3423 49.7426 79.4321C51.6529 77.5218 52.7261 74.9309 52.7261 72.2293V61.8447H42.5399C39.8384 61.8447 37.2475 62.9179 35.3372 64.8282C33.4269 66.7385 32.3537 69.3294 32.3537 72.0309C32.3537 74.7324 33.4269 77.3233 35.3372 79.2336C37.2475 81.1439 39.8384 82.2171 42.5399 82.2171V82.4155Z" fill="#0ACF83"/>
<path d="M32.0892 51.9231C32.1235 50.5852 32.421 49.2673 32.9649 48.0445C33.5087 46.8218 34.2882 45.7182 35.2587 44.7968C36.2293 43.8754 37.3718 43.1543 38.6212 42.6746C39.8705 42.195 41.2021 41.9662 42.5399 42.0014H52.4615V61.8447H42.5399C41.2021 61.8799 39.8705 61.6511 38.6212 61.1715C37.3718 60.6918 36.2293 59.9707 35.2587 59.0493C34.2882 58.1279 33.5087 57.0243 32.9649 55.8016C32.421 54.5788 32.1235 53.2609 32.0892 51.9231Z" fill="#A259FF"/>
<path d="M32.0891 31.5507C32.0975 30.1961 32.3759 28.8567 32.9082 27.611C33.4405 26.3653 34.216 25.2382 35.1891 24.2959C36.1623 23.3535 37.3137 22.6147 38.5759 22.1227C39.838 21.6307 41.1857 21.3955 42.5399 21.4307H52.4615V42.0015H42.5399C41.1576 42.0379 39.7823 41.7924 38.4979 41.2801C37.2135 40.7678 36.0469 39.9993 35.0691 39.0215C34.0913 38.0438 33.3228 36.8771 32.8105 35.5927C32.2982 34.3083 32.0528 32.9331 32.0891 31.5507Z" fill="#F24E1E"/>
<path d="M52.4615 21.4307H62.3831C65.111 21.4307 67.7271 22.5143 69.656 24.4432C71.5849 26.3721 72.6685 28.9882 72.6685 31.7161C72.6685 34.4439 71.5849 37.06 69.656 38.9889C67.7271 40.9178 65.111 42.0015 62.3831 42.0015H52.4615V21.4307Z" fill="#FF7262"/>
<path d="M72.8339 51.9231C72.8855 53.9367 72.3389 55.9205 71.2632 57.6236C70.1876 59.3267 68.6311 60.6726 66.7906 61.4912C64.9501 62.3098 62.9082 62.5644 60.923 62.2226C58.9379 61.8809 57.0986 60.9583 55.6378 59.5714C54.1769 58.1845 53.1601 56.3956 52.7157 54.4309C52.2714 52.4662 52.4196 50.4138 53.1416 48.5333C53.8635 46.6528 55.1268 45.0285 56.7718 43.8659C58.4167 42.7033 60.3695 42.0544 62.3831 42.0014C63.7209 41.9662 65.0525 42.195 66.3018 42.6746C67.5512 43.1543 68.6938 43.8754 69.6643 44.7968C70.6348 45.7182 71.4143 46.8218 71.9582 48.0445C72.502 49.2673 72.7996 50.5852 72.8339 51.9231Z" fill="#1ABCFE"/>
</svg>
