<svg width="45" height="45" viewBox="0 0 43 43" fill="none" xmlns="http://www.w3.org/2000/svg">
<path d="M21.7472 0.910156C10.04 0.910156 0.546021 10.362 0.546021 22.022C0.546021 31.3478 6.62116 39.2592 15.0496 42.0532C16.1097 42.2483 16.4968 41.5965 16.4968 41.0365C16.4968 40.5344 16.4786 39.2069 16.4675 37.4457C10.5702 38.7207 9.32477 34.6149 9.32477 34.6149C8.36251 32.1754 6.97076 31.5265 6.97076 31.5265C5.04377 30.2175 7.11411 30.2441 7.11411 30.2441C9.2423 30.3936 10.3608 32.4202 10.3608 32.4202C12.2532 35.6452 15.3254 34.7146 16.5339 34.1733C16.7246 32.8092 17.2731 31.8789 17.8806 31.3506C13.173 30.8169 8.22166 29.0056 8.22166 20.9181C8.22166 18.6128 9.04901 16.7285 10.4057 15.2511C10.1857 14.7175 9.45958 12.5698 10.6126 9.66529C10.6126 9.66529 12.394 9.09796 16.4435 11.8286C18.1347 11.3606 19.9477 11.1271 21.7526 11.1192C23.5521 11.13 25.3673 11.3606 27.0613 11.8315C31.109 9.10042 32.8874 9.66819 32.8874 9.66819C34.0428 12.5754 33.3168 14.7203 33.0995 15.2536C34.4589 16.731 35.2782 18.6154 35.2782 20.9209C35.2782 29.0295 30.3218 30.8142 25.5987 31.337C26.3594 31.9893 27.0376 33.2767 27.0376 35.2456C27.0376 38.069 27.0112 40.3449 27.0112 41.0365C27.0112 41.6014 27.3927 42.2585 28.4688 42.0508C36.8843 39.2538 42.954 31.3453 42.954 22.022C42.9541 10.3619 33.4601 0.910156 21.7472 0.910156Z" fill="white"/>
</svg>
