<svg width="46" height="46" viewBox="0 0 46 46" fill="none" xmlns="http://www.w3.org/2000/svg">
<path fill-rule="evenodd" clip-rule="evenodd" d="M23.2417 0.470795C10.6739 0.470795 0.483459 10.9158 0.483459 23.8094C0.483459 34.1223 7.00614 42.8603 16.0485 45.9491C17.1864 46.1625 17.603 45.4411 17.603 44.8213C17.603 44.2625 17.5826 42.7993 17.5725 40.8485C11.2428 42.2608 9.90173 37.7191 9.90173 37.7191C8.86541 35.0266 7.3719 34.3052 7.3719 34.3052C5.30943 32.8522 7.5243 32.8827 7.5243 32.8827C9.81029 33.0453 11.0092 35.2908 11.0092 35.2908C13.0411 38.8571 16.333 37.8309 17.6334 37.2314C17.8366 35.7277 18.4259 34.6913 19.0762 34.1121C14.0267 33.5228 8.71301 31.5212 8.71301 22.58C8.71301 20.0297 9.59693 17.9468 11.0498 16.3211C10.8161 15.7318 10.0338 13.3543 11.2733 10.1436C11.2733 10.1436 13.1834 9.51362 17.5318 12.5313C19.3505 12.0131 21.291 11.7591 23.2316 11.7489C25.162 11.7591 27.1127 12.0131 28.9313 12.5313C33.2798 9.51362 35.1797 10.1436 35.1797 10.1436C36.4192 13.3543 35.6369 15.7318 35.4032 16.3211C36.8561 17.957 37.74 20.0399 37.74 22.58C37.74 31.5415 32.4162 33.5127 27.3463 34.0918C28.1591 34.8132 28.8907 36.2357 28.8907 38.41C28.8907 41.5293 28.8602 44.0491 28.8602 44.8111C28.8602 45.4309 29.2666 46.1625 30.4248 45.9288C39.4875 42.8501 46 34.1121 46 23.8094C46 10.9158 35.8096 0.470795 23.2417 0.470795Z" fill="white"/>
</svg>
