<svg width="105" height="104" viewBox="0 0 105 104" fill="none" xmlns="http://www.w3.org/2000/svg">
<path d="M52.6154 103.846C81.2917 103.846 104.538 80.5994 104.538 51.9231C104.538 23.2468 81.2917 0 52.6154 0C23.939 0 0.692291 23.2468 0.692291 51.9231C0.692291 80.5994 23.939 103.846 52.6154 103.846Z" fill="#F0652A"/>
<path d="M27.9 25.9615L32.3654 76.3269L52.5115 82.0385L72.7615 76.3269L77.3308 25.9615H27.9ZM67.5692 42.3692H43.8923L44.4115 48.7039H66.9462L65.1808 67.8115L52.6154 71.2385H52.5115L39.8423 67.7077L39.1154 58.05H45.2423L45.6577 62.9308L52.5115 64.8L59.3654 62.9308L60.0923 54.9346H38.8038L37.1423 36.2423H68.0885L67.5692 42.3692Z" fill="white"/>
</svg>
