<svg width="46" height="47" viewBox="0 0 46 47" fill="none" xmlns="http://www.w3.org/2000/svg">
<path d="M22.7583 11.6077C16.3346 11.6077 11.0121 16.8385 11.0121 23.3539C11.0121 29.8694 16.2428 35.1001 22.7583 35.1001C29.2738 35.1001 34.5045 29.7776 34.5045 23.3539C34.5045 16.9302 29.182 11.6077 22.7583 11.6077ZM22.7583 30.8788C18.6288 30.8788 15.2334 27.4835 15.2334 23.3539C15.2334 19.2244 18.6288 15.829 22.7583 15.829C26.8878 15.829 30.2832 19.2244 30.2832 23.3539C30.2832 27.4835 26.8878 30.8788 22.7583 30.8788Z" fill="white"/>
<path d="M34.9633 13.9936C36.4331 13.9936 37.6246 12.8022 37.6246 11.3324C37.6246 9.86262 36.4331 8.67114 34.9633 8.67114C33.4935 8.67114 32.3021 9.86262 32.3021 11.3324C32.3021 12.8022 33.4935 13.9936 34.9633 13.9936Z" fill="white"/>
<path d="M41.8459 4.44983C39.4599 1.97212 36.0645 0.687378 32.2103 0.687378H13.3062C5.3225 0.687378 0 6.00988 0 13.9936V32.8059C0 36.7519 1.28474 40.1473 3.85422 42.625C6.33194 45.0109 9.63556 46.2039 13.398 46.2039H32.1185C36.0645 46.2039 39.3681 44.9192 41.7541 42.625C44.2318 40.239 45.5165 36.8437 45.5165 32.8977V13.9936C45.5165 10.1394 44.2318 6.83578 41.8459 4.44983ZM41.4788 32.8977C41.4788 35.7425 40.4693 38.0366 38.8175 39.5967C37.1657 41.1567 34.8715 41.9826 32.1185 41.9826H13.398C10.645 41.9826 8.35082 41.1567 6.69901 39.5967C5.0472 37.9449 4.22129 35.6507 4.22129 32.8059V13.9936C4.22129 11.2406 5.0472 8.94643 6.69901 7.29462C8.25905 5.73457 10.645 4.90867 13.398 4.90867H32.3021C35.0551 4.90867 37.3493 5.73457 39.0011 7.38638C40.5611 9.03819 41.4788 11.3324 41.4788 13.9936V32.8977Z" fill="white"/>
</svg>
