<svg width="45" height="45" viewBox="0 0 41 41" fill="none" xmlns="http://www.w3.org/2000/svg">
<path d="M20.6296 10.254C15.0124 10.254 10.358 14.7778 10.358 20.4127C10.358 26.0476 14.9321 30.5715 20.6296 30.5715C26.3272 30.5715 30.9012 25.9683 30.9012 20.4127C30.9012 14.8572 26.2469 10.254 20.6296 10.254ZM20.6296 26.9207C17.0185 26.9207 14.0494 23.9842 14.0494 20.4127C14.0494 16.8413 17.0185 13.9048 20.6296 13.9048C24.2407 13.9048 27.2099 16.8413 27.2099 20.4127C27.2099 23.9842 24.2407 26.9207 20.6296 26.9207Z" fill="white"/>
<path d="M31.3024 12.3175C32.5877 12.3175 33.6296 11.287 33.6296 10.0159C33.6296 8.74475 32.5877 7.71429 31.3024 7.71429C30.0172 7.71429 28.9753 8.74475 28.9753 10.0159C28.9753 11.287 30.0172 12.3175 31.3024 12.3175Z" fill="white"/>
<path d="M37.321 4.06351C35.2346 1.92065 32.2654 0.80954 28.8951 0.80954H12.3642C5.38271 0.80954 0.728394 5.41271 0.728394 12.3175V28.5873C0.728394 32 1.85185 34.9365 4.09876 37.0794C6.26543 39.1429 9.15432 40.1746 12.4444 40.1746H28.8148C32.2654 40.1746 35.1543 39.0635 37.2407 37.0794C39.4074 35.0159 40.5309 32.0794 40.5309 28.6667V12.3175C40.5309 8.98414 39.4074 6.127 37.321 4.06351ZM37 28.6667C37 31.127 36.1173 33.1111 34.6728 34.4603C33.2284 35.8095 31.2222 36.5238 28.8148 36.5238H12.4444C10.037 36.5238 8.03086 35.8095 6.58642 34.4603C5.14197 33.0318 4.41975 31.0476 4.41975 28.5873V12.3175C4.41975 9.93652 5.14197 7.9524 6.58642 6.52383C7.95061 5.17462 10.037 4.46033 12.4444 4.46033H28.9753C31.3827 4.46033 33.3889 5.17462 34.8333 6.60319C36.1975 8.03176 37 10.0159 37 12.3175V28.6667Z" fill="white"/>
</svg>
