<svg width="104" height="104" viewBox="0 0 104 104" fill="none" xmlns="http://www.w3.org/2000/svg">
<path d="M51.9231 103.846C80.5994 103.846 103.846 80.5994 103.846 51.9231C103.846 23.2468 80.5994 0 51.9231 0C23.2468 0 0 23.2468 0 51.9231C0 80.5994 23.2468 103.846 51.9231 103.846Z" fill="#F3D92D"/>
<path d="M35.723 31.7769H44.7577V57.2192C44.7577 68.6422 39.2538 72.6922 30.5307 72.6922C28.35 72.6922 25.65 72.3807 23.8846 71.7576L24.923 64.3846C26.1692 64.7999 27.8307 65.1115 29.5961 65.1115C33.4384 65.1115 35.8269 63.3461 35.8269 57.2192L35.723 31.7769Z" fill="black"/>
<path d="M52.7538 62.723C55.1423 63.9692 58.9846 65.2153 62.8269 65.2153C66.9807 65.2153 69.1615 63.45 69.1615 60.75C69.1615 58.2577 67.2923 56.8038 62.4115 55.1423C55.7654 52.7538 51.3 49.0153 51.3 43.0961C51.3 36.3461 57.1153 31.1538 66.5654 31.1538C71.1346 31.1538 74.4577 32.0884 76.8461 33.2307L74.7692 40.5C73.2115 39.773 70.3038 38.6307 66.4615 38.6307C62.5154 38.6307 60.6461 40.5 60.6461 42.473C60.6461 45.0692 62.8269 46.2115 68.123 48.1846C75.1846 50.7807 78.5077 54.5192 78.5077 60.2307C78.5077 66.9807 73.4192 72.6923 62.3077 72.6923C57.7384 72.6923 53.1692 71.4461 50.8846 70.2L52.7538 62.723Z" fill="black"/>
</svg>
