<svg width="46" height="46" viewBox="0 0 46 46" fill="none" xmlns="http://www.w3.org/2000/svg">
<path d="M24.4756 20.5309V20.4595C24.4608 20.4836 24.445 20.5077 24.4293 20.5309H24.4756Z" fill="white"/>
<path d="M42.1515 0H3.36228C1.50571 0 0 1.46054 0 3.26059V42.2569C0 44.056 1.50571 45.5165 3.36228 45.5165H42.1515C44.0108 45.5165 45.5165 44.0551 45.5165 42.2569V3.26059C45.5165 1.45963 44.0099 0 42.1515 0ZM13.7963 38.1031H6.92165V17.5503H13.7963V38.1031ZM10.3594 14.7427H10.3134C8.00741 14.7427 6.51552 13.1641 6.51552 11.192C6.51552 9.17597 8.05346 7.6413 10.4046 7.6413C12.7566 7.6413 14.2034 9.17597 14.2494 11.192C14.2494 13.1641 12.7557 14.7427 10.3594 14.7427ZM38.5866 38.1031H31.7119V27.1051C31.7119 24.3433 30.7173 22.4581 28.2299 22.4581C26.331 22.4581 25.2001 23.7292 24.7019 24.9573C24.5205 25.3957 24.4763 26.0088 24.4763 26.6238V38.1022H17.6016C17.6016 38.1022 17.6918 19.4757 17.6016 17.5494H24.4763V20.4586C25.3898 19.0584 27.0235 17.0644 30.6731 17.0644C35.1958 17.0644 38.5875 20.0028 38.5875 26.3163V38.1031H38.5866Z" fill="white"/>
</svg>