<svg width="45" height="45" viewBox="0 0 41 41" fill="none" xmlns="http://www.w3.org/2000/svg">
<path d="M22.1336 18.5114V18.4503C22.1209 18.471 22.1074 18.4916 22.0939 18.5114H22.1336Z" fill="white"/>
<path d="M37.5386 0.704468H3.73438C2.1164 0.704468 0.804199 1.97129 0.804199 3.53259V37.3566C0.804199 38.9171 2.1164 40.1839 3.73438 40.1839H37.5386C39.1589 40.1839 40.4711 38.9163 40.4711 37.3566V3.53259C40.4711 1.9705 39.1581 0.704468 37.5386 0.704468ZM12.8275 33.7538H6.8363V15.927H12.8275V33.7538ZM9.83229 13.4918H9.79216C7.78253 13.4918 6.48237 12.1225 6.48237 10.412C6.48237 8.66339 7.82266 7.33227 9.87162 7.33227C11.9214 7.33227 13.1822 8.66339 13.2223 10.412C13.2223 12.1225 11.9206 13.4918 9.83229 13.4918ZM34.4318 33.7538H28.4406V24.2145C28.4406 21.819 27.5739 20.1839 25.4061 20.1839C23.7512 20.1839 22.7657 21.2864 22.3315 22.3516C22.1734 22.7318 22.1349 23.2636 22.1349 23.797V33.753H16.1437C16.1437 33.753 16.2223 17.597 16.1437 15.9262H22.1349V18.4495C22.931 17.2351 24.3548 15.5055 27.5353 15.5055C31.4768 15.5055 34.4326 18.0542 34.4326 23.5303V33.7538H34.4318Z" fill="white"/>
</svg>
